<mxfile host="app.diagrams.net" agent="Mozilla/5.0 (Windows NT 10.0; Win64; x64) AppleWebKit/537.36 (KHTML, like Gecko) Chrome/134.0.0.0 Safari/537.36" version="26.2.1">
  <diagram name="Pagina-1" id="tzwjIH1kDpvnvhFnZnsm">
    <mxGraphModel dx="1428" dy="743" grid="1" gridSize="10" guides="1" tooltips="1" connect="1" arrows="1" fold="1" page="1" pageScale="1" pageWidth="2339" pageHeight="3300" math="0" shadow="0">
      <root>
        <mxCell id="0" />
        <mxCell id="1" parent="0" />
        <mxCell id="wdTGf4uD9tJb06taWbGD-1" value="&lt;font face=&quot;Comic Sans MS&quot;&gt;&lt;b&gt;&lt;i&gt;Root&lt;/i&gt;&lt;/b&gt;&lt;/font&gt;" style="ellipse;whiteSpace=wrap;html=1;aspect=fixed;" vertex="1" parent="1">
          <mxGeometry x="654.5901639344263" y="10" width="36.58536585365854" height="36.58536585365854" as="geometry" />
        </mxCell>
        <mxCell id="wdTGf4uD9tJb06taWbGD-2" value="h&lt;sub&gt;1&lt;/sub&gt;" style="ellipse;whiteSpace=wrap;html=1;aspect=fixed;fontColor=#FF0000;fontFamily=Comic Sans MS;" vertex="1" parent="1">
          <mxGeometry x="443.6885245901639" y="64.8780487804878" width="24.390243902439025" height="24.390243902439025" as="geometry" />
        </mxCell>
        <mxCell id="wdTGf4uD9tJb06taWbGD-3" value="" style="ellipse;whiteSpace=wrap;html=1;aspect=fixed;" vertex="1" parent="1">
          <mxGeometry x="879.0983606557377" y="64.8780487804878" width="24.390243902439025" height="24.390243902439025" as="geometry" />
        </mxCell>
        <mxCell id="wdTGf4uD9tJb06taWbGD-5" value="" style="ellipse;whiteSpace=wrap;html=1;aspect=fixed;" vertex="1" parent="1">
          <mxGeometry x="770.2459016393443" y="138.04878048780486" width="24.390243902439025" height="24.390243902439025" as="geometry" />
        </mxCell>
        <mxCell id="wdTGf4uD9tJb06taWbGD-7" value="h&lt;sub&gt;2&lt;/sub&gt;" style="ellipse;whiteSpace=wrap;html=1;aspect=fixed;fontColor=#FF0000;fontFamily=Comic Sans MS;" vertex="1" parent="1">
          <mxGeometry x="715.8196721311475" y="186.8292682926829" width="24.390243902439025" height="24.390243902439025" as="geometry" />
        </mxCell>
        <mxCell id="wdTGf4uD9tJb06taWbGD-8" value="h&lt;sub&gt;3&lt;/sub&gt;" style="ellipse;whiteSpace=wrap;html=1;aspect=fixed;fontColor=#FF0000;fontFamily=Comic Sans MS;" vertex="1" parent="1">
          <mxGeometry x="824.672131147541" y="186.8292682926829" width="24.390243902439025" height="24.390243902439025" as="geometry" />
        </mxCell>
        <mxCell id="wdTGf4uD9tJb06taWbGD-9" value="" style="endArrow=none;html=1;rounded=0;entryX=0;entryY=0.5;entryDx=0;entryDy=0;exitX=1;exitY=0;exitDx=0;exitDy=0;" edge="1" parent="1" source="wdTGf4uD9tJb06taWbGD-2" target="wdTGf4uD9tJb06taWbGD-1">
          <mxGeometry width="50" height="50" relative="1" as="geometry">
            <mxPoint x="668.1967213114754" y="217.3170731707317" as="sourcePoint" />
            <mxPoint x="702.2131147540983" y="186.8292682926829" as="targetPoint" />
          </mxGeometry>
        </mxCell>
        <mxCell id="wdTGf4uD9tJb06taWbGD-10" value="" style="endArrow=none;html=1;rounded=0;entryX=1;entryY=0.5;entryDx=0;entryDy=0;exitX=0;exitY=0;exitDx=0;exitDy=0;" edge="1" parent="1" source="wdTGf4uD9tJb06taWbGD-3" target="wdTGf4uD9tJb06taWbGD-1">
          <mxGeometry width="50" height="50" relative="1" as="geometry">
            <mxPoint x="668.1967213114754" y="217.3170731707317" as="sourcePoint" />
            <mxPoint x="702.2131147540983" y="186.8292682926829" as="targetPoint" />
          </mxGeometry>
        </mxCell>
        <mxCell id="wdTGf4uD9tJb06taWbGD-13" value="" style="endArrow=none;html=1;rounded=0;entryX=0;entryY=1;entryDx=0;entryDy=0;exitX=1;exitY=0;exitDx=0;exitDy=0;" edge="1" parent="1" source="wdTGf4uD9tJb06taWbGD-5" target="wdTGf4uD9tJb06taWbGD-3">
          <mxGeometry width="50" height="50" relative="1" as="geometry">
            <mxPoint x="668.1967213114754" y="217.3170731707317" as="sourcePoint" />
            <mxPoint x="702.2131147540983" y="186.8292682926829" as="targetPoint" />
          </mxGeometry>
        </mxCell>
        <mxCell id="wdTGf4uD9tJb06taWbGD-14" value="" style="endArrow=none;html=1;rounded=0;entryX=1;entryY=1;entryDx=0;entryDy=0;exitX=0.5;exitY=0;exitDx=0;exitDy=0;" edge="1" parent="1" source="wdTGf4uD9tJb06taWbGD-31" target="wdTGf4uD9tJb06taWbGD-3">
          <mxGeometry width="50" height="50" relative="1" as="geometry">
            <mxPoint x="991.5226881942674" y="141.62064900994073" as="sourcePoint" />
            <mxPoint x="702.2131147540983" y="186.8292682926829" as="targetPoint" />
          </mxGeometry>
        </mxCell>
        <mxCell id="wdTGf4uD9tJb06taWbGD-17" value="" style="endArrow=none;html=1;rounded=0;entryX=0;entryY=1;entryDx=0;entryDy=0;exitX=1;exitY=0;exitDx=0;exitDy=0;" edge="1" parent="1" source="wdTGf4uD9tJb06taWbGD-7" target="wdTGf4uD9tJb06taWbGD-5">
          <mxGeometry width="50" height="50" relative="1" as="geometry">
            <mxPoint x="668.1967213114754" y="217.3170731707317" as="sourcePoint" />
            <mxPoint x="702.2131147540983" y="186.8292682926829" as="targetPoint" />
          </mxGeometry>
        </mxCell>
        <mxCell id="wdTGf4uD9tJb06taWbGD-18" value="" style="endArrow=none;html=1;rounded=0;entryX=1;entryY=1;entryDx=0;entryDy=0;exitX=0;exitY=0;exitDx=0;exitDy=0;" edge="1" parent="1" source="wdTGf4uD9tJb06taWbGD-8" target="wdTGf4uD9tJb06taWbGD-5">
          <mxGeometry width="50" height="50" relative="1" as="geometry">
            <mxPoint x="668.1967213114754" y="217.3170731707317" as="sourcePoint" />
            <mxPoint x="702.2131147540983" y="186.8292682926829" as="targetPoint" />
          </mxGeometry>
        </mxCell>
        <mxCell id="wdTGf4uD9tJb06taWbGD-31" value="" style="whiteSpace=wrap;html=1;aspect=fixed;" vertex="1" parent="1">
          <mxGeometry x="980" y="135.23999999999998" width="30" height="30" as="geometry" />
        </mxCell>
      </root>
    </mxGraphModel>
  </diagram>
</mxfile>
